<svg xmlns="http://www.w3.org/2000/svg" xmlns:xlink="http://www.w3.org/1999/xlink" width="220" zoomAndPan="magnify" viewBox="0 0 165 107.249998" height="143" preserveAspectRatio="xMidYMid meet" version="1.0"><defs><filter x="0%" y="0%" width="100%" height="100%" id="fc6ce21bdb"><feColorMatrix values="0 0 0 0 1 0 0 0 0 1 0 0 0 0 1 0 0 0 1 0" color-interpolation-filters="sRGB"/></filter><mask id="a58a2403ce"><g filter="url(#fc6ce21bdb)"><rect x="-16.5" width="198" fill="#000000" y="-10.725" height="128.699997" fill-opacity="0.31"/></g></mask><clipPath id="9f3cbf0b9a"><path d="M 1.09375 0.390625 L 58 0.390625 L 58 77.757812 L 1.09375 77.757812 Z M 1.09375 0.390625 " clip-rule="nonzero"/></clipPath><clipPath id="e8768d20a5"><path d="M 62 0.390625 L 118.574219 0.390625 L 118.574219 77.757812 L 62 77.757812 Z M 62 0.390625 " clip-rule="nonzero"/></clipPath><clipPath id="ee6788b95e"><rect x="0" width="119" y="0" height="78"/></clipPath></defs><g mask="url(#a58a2403ce)"><g transform="matrix(1, 0, 0, 1, 25, 14)"><g clip-path="url(#ee6788b95e)"><g clip-path="url(#9f3cbf0b9a)"><path fill="#c49c44" d="M 57.132812 29.253906 C 56.175781 16.210938 49.632812 4.660156 35.472656 1.183594 C 33.316406 0.652344 31.097656 0.390625 28.875 0.390625 C 13.632812 0.390625 1.277344 12.746094 1.277344 27.988281 C 1.277344 34.726562 3.785156 41.316406 8.265625 46.34375 C 10.476562 48.820312 13.125 50.898438 16.066406 52.441406 C 19.496094 54.238281 22.882812 54.566406 26.527344 55.550781 C 29.902344 56.457031 29.894531 61.042969 29.046875 63.761719 C 27.589844 68.429688 24.117188 71.527344 19.238281 72.105469 C 18.234375 72.222656 17.214844 72.261719 16.226562 72.492188 C 14.285156 72.945312 12.609375 74.59375 14.769531 75.972656 C 18.109375 78.101562 23.605469 77.714844 27.304688 76.988281 C 31.558594 76.15625 35.570312 74.28125 39.117188 71.816406 C 51.046875 63.539062 58.304688 45.277344 57.132812 29.253906 Z M 57.132812 29.253906 " fill-opacity="1" fill-rule="nonzero"/></g><g clip-path="url(#e8768d20a5)"><path fill="#c49c44" d="M 118.140625 29.253906 C 117.1875 16.210938 110.640625 4.660156 96.480469 1.183594 C 94.324219 0.652344 92.105469 0.390625 89.882812 0.390625 C 74.640625 0.390625 62.285156 12.746094 62.285156 27.988281 C 62.285156 34.726562 64.792969 41.316406 69.273438 46.34375 C 71.484375 48.820312 74.136719 50.898438 77.078125 52.441406 C 80.503906 54.238281 83.890625 54.566406 87.539062 55.550781 C 90.910156 56.457031 90.90625 61.042969 90.054688 63.761719 C 88.597656 68.429688 85.125 71.527344 80.246094 72.105469 C 79.242188 72.222656 78.222656 72.261719 77.238281 72.492188 C 75.292969 72.945312 73.617188 74.59375 75.78125 75.972656 C 79.117188 78.101562 84.613281 77.714844 88.3125 76.988281 C 92.570312 76.15625 96.578125 74.28125 100.125 71.816406 C 112.054688 63.539062 119.3125 45.277344 118.140625 29.253906 Z M 118.140625 29.253906 " fill-opacity="1" fill-rule="nonzero"/></g></g></g></g></svg>