<svg xmlns="http://www.w3.org/2000/svg" xmlns:xlink="http://www.w3.org/1999/xlink" width="169" zoomAndPan="magnify" viewBox="0 0 126.75 126.750001" height="169" preserveAspectRatio="xMidYMid meet" version="1.0"><defs><clipPath id="b641e27c96"><path d="M 19.433594 87.722656 L 106.886719 87.722656 L 106.886719 99.054688 L 19.433594 99.054688 Z M 19.433594 87.722656 " clip-rule="nonzero"/></clipPath><clipPath id="1f96bec74c"><path d="M 12.648438 27.203125 L 113.699219 27.203125 L 113.699219 90.25 L 12.648438 90.25 Z M 12.648438 27.203125 " clip-rule="nonzero"/></clipPath></defs><g clip-path="url(#b641e27c96)"><path fill="#cba449" d="M 104.992188 87.789062 C 99.5625 91.378906 82.898438 93.992188 63.175781 93.992188 C 43.457031 93.992188 26.789062 91.378906 21.363281 87.789062 C 20.148438 88.589844 19.496094 89.441406 19.496094 90.320312 C 19.496094 95.144531 39.054688 99.054688 63.175781 99.054688 C 87.300781 99.054688 106.855469 95.144531 106.855469 90.320312 C 106.855469 89.441406 106.203125 88.589844 104.992188 87.789062 " fill-opacity="1" fill-rule="nonzero"/></g><g clip-path="url(#1f96bec74c)"><path fill="#cba449" d="M 102.570312 76.980469 L 101.6875 72.9375 L 104.398438 69.808594 L 105.28125 73.851562 Z M 84.933594 79.351562 L 83.46875 72.636719 L 87.972656 67.4375 L 89.4375 74.152344 Z M 63.175781 82.453125 L 58.585938 73.285156 L 63.175781 64.117188 L 67.769531 73.285156 Z M 41.417969 79.351562 L 36.917969 74.152344 L 38.382812 67.4375 L 42.882812 72.636719 Z M 23.785156 76.980469 L 21.074219 73.851562 L 21.957031 69.808594 L 24.667969 72.9375 Z M 113.703125 56.1875 C 113.703125 54.191406 112.085938 52.574219 110.085938 52.574219 C 108.085938 52.574219 106.46875 54.191406 106.46875 56.1875 C 106.46875 57.503906 107.175781 58.660156 108.234375 59.289062 C 100.335938 73.769531 93.386719 64.765625 90.117188 58.589844 C 91.660156 57.835938 92.722656 56.253906 92.722656 54.421875 C 92.722656 51.859375 90.644531 49.78125 88.074219 49.78125 C 85.507812 49.78125 83.425781 51.859375 83.425781 54.421875 C 83.425781 56.25 84.488281 57.832031 86.027344 58.589844 C 75.574219 77.667969 67.605469 52.136719 64.542969 39.660156 C 67.375 39.035156 69.492188 36.519531 69.492188 33.503906 C 69.492188 30.023438 66.664062 27.203125 63.175781 27.203125 C 59.691406 27.203125 56.863281 30.023438 56.863281 33.503906 C 56.863281 36.519531 58.980469 39.035156 61.8125 39.660156 C 58.75 52.136719 50.777344 77.667969 40.324219 58.589844 C 41.867188 57.832031 42.929688 56.25 42.929688 54.421875 C 42.929688 51.859375 40.847656 49.78125 38.28125 49.78125 C 35.710938 49.78125 33.628906 51.859375 33.628906 54.421875 C 33.628906 56.253906 34.695312 57.835938 36.238281 58.589844 C 32.96875 64.765625 26.019531 73.769531 18.117188 59.289062 C 19.175781 58.660156 19.886719 57.503906 19.886719 56.1875 C 19.886719 54.191406 18.265625 52.574219 16.269531 52.574219 C 14.269531 52.574219 12.648438 54.191406 12.648438 56.1875 C 12.648438 58.046875 14.058594 59.578125 15.871094 59.777344 C 16.472656 66.433594 17.910156 76.796875 21.261719 82.25 C 20.113281 82.804688 19.496094 83.390625 19.496094 83.996094 C 19.496094 87.414062 39.054688 90.183594 63.175781 90.183594 C 87.300781 90.183594 106.855469 87.414062 106.855469 83.996094 C 106.855469 83.390625 106.242188 82.804688 105.09375 82.25 C 108.445312 76.796875 109.882812 66.433594 110.484375 59.777344 C 112.292969 59.578125 113.703125 58.046875 113.703125 56.1875 " fill-opacity="1" fill-rule="nonzero"/></g></svg>