<?xml version="1.0" encoding="UTF-8"?>
<svg xmlns="http://www.w3.org/2000/svg" xmlns:xlink="http://www.w3.org/1999/xlink" width="120px" height="120px" viewBox="0 0 120 120" version="1.1">
<defs>
<radialGradient id="radial0" gradientUnits="userSpaceOnUse" cx="332.14" cy="2511.81" fx="332.14" fy="2511.81" r="3263.54" gradientTransform="matrix(0.048,0,0,0.048,0.0024,0)">
<stop offset="0.09" style="stop-color:rgb(98.039216%,56.078431%,12.941176%);stop-opacity:1;"/>
<stop offset="0.78" style="stop-color:rgb(84.705882%,17.647059%,49.411765%);stop-opacity:1;"/>
</radialGradient>
<radialGradient id="radial1" gradientUnits="userSpaceOnUse" cx="1516.14" cy="2623.81" fx="1516.14" fy="2623.81" r="2572.12" gradientTransform="matrix(0.048,0,0,0.048,0.0024,0)">
<stop offset="0.64" style="stop-color:rgb(54.901961%,22.745098%,66.666667%);stop-opacity:0;"/>
<stop offset="1" style="stop-color:rgb(54.901961%,22.745098%,66.666667%);stop-opacity:1;"/>
</radialGradient>
</defs>
<g id="surface1">
<path style=" stroke:none;fill-rule:nonzero;fill:url(#radial0);" d="M 40.003906 60 C 40.003906 48.953125 48.957031 40 60.003906 40 C 71.046875 40 80.003906 48.953125 80.003906 60 C 80.003906 71.046875 71.046875 80 60.003906 80 C 48.957031 80 40.003906 71.046875 40.003906 60 M 29.191406 60 C 29.191406 77.015625 42.988281 90.808594 60.003906 90.808594 C 77.019531 90.808594 90.8125 77.015625 90.8125 60 C 90.8125 42.984375 77.019531 29.191406 60.003906 29.191406 C 42.988281 29.191406 29.191406 42.984375 29.191406 60 M 84.832031 27.96875 C 84.828125 31.945312 88.050781 35.171875 92.027344 35.171875 C 96.003906 35.171875 99.230469 31.953125 99.230469 27.976562 C 99.234375 24 96.011719 20.773438 92.035156 20.773438 L 92.03125 20.773438 C 88.058594 20.773438 84.835938 23.996094 84.832031 27.96875 M 35.761719 108.839844 C 29.914062 108.570312 26.734375 107.597656 24.621094 106.773438 C 21.820312 105.683594 19.820312 104.386719 17.71875 102.285156 C 15.617188 100.1875 14.316406 98.191406 13.230469 95.390625 C 12.40625 93.277344 11.433594 90.097656 11.167969 84.246094 C 10.875 77.921875 10.816406 76.023438 10.816406 60 C 10.816406 43.976562 10.878906 42.082031 11.167969 35.753906 C 11.433594 29.902344 12.414062 26.730469 13.230469 24.609375 C 14.320312 21.808594 15.621094 19.8125 17.71875 17.710938 C 19.816406 15.609375 21.8125 14.308594 24.621094 13.222656 C 26.730469 12.398438 29.914062 11.421875 35.761719 11.15625 C 42.085938 10.867188 43.988281 10.808594 60.003906 10.808594 C 76.019531 10.808594 77.917969 10.871094 84.25 11.15625 C 90.097656 11.425781 93.273438 12.40625 95.390625 13.222656 C 98.191406 14.308594 100.191406 15.609375 102.292969 17.710938 C 104.394531 19.808594 105.691406 21.808594 106.78125 24.609375 C 107.605469 26.722656 108.578125 29.902344 108.84375 35.753906 C 109.136719 42.082031 109.195312 43.976562 109.195312 60 C 109.195312 76.023438 109.136719 77.917969 108.84375 84.246094 C 108.578125 90.097656 107.601562 93.277344 106.78125 95.390625 C 105.691406 98.191406 104.390625 100.191406 102.292969 102.285156 C 100.195312 104.382812 98.191406 105.683594 95.390625 106.773438 C 93.28125 107.597656 90.097656 108.574219 84.25 108.839844 C 77.925781 109.128906 76.023438 109.1875 60.003906 109.1875 C 43.980469 109.1875 42.085938 109.128906 35.761719 108.839844 M 35.265625 0.363281 C 28.878906 0.652344 24.511719 1.667969 20.703125 3.148438 C 16.753906 4.683594 13.414062 6.738281 10.074219 10.070312 C 6.734375 13.40625 4.683594 16.753906 3.152344 20.699219 C 1.667969 24.511719 0.65625 28.875 0.367188 35.261719 C 0.0703125 41.660156 0.00390625 43.707031 0.00390625 60 C 0.00390625 76.292969 0.0703125 78.339844 0.367188 84.738281 C 0.65625 91.125 1.667969 95.488281 3.152344 99.300781 C 4.683594 103.246094 6.734375 106.597656 10.074219 109.929688 C 13.414062 113.261719 16.753906 115.3125 20.703125 116.851562 C 24.519531 118.332031 28.878906 119.347656 35.265625 119.636719 C 41.667969 119.925781 43.707031 120 60.003906 120 C 76.296875 120 78.339844 119.933594 84.738281 119.636719 C 91.128906 119.347656 95.488281 118.332031 99.304688 116.851562 C 103.246094 115.3125 106.59375 113.261719 109.929688 109.929688 C 113.269531 106.59375 115.316406 103.246094 116.851562 99.300781 C 118.335938 95.488281 119.351562 91.125 119.640625 84.738281 C 119.929688 78.335938 119.996094 76.292969 119.996094 60 C 119.996094 43.707031 119.929688 41.660156 119.640625 35.261719 C 119.347656 28.875 118.335938 24.511719 116.851562 20.699219 C 115.316406 16.753906 113.265625 13.410156 109.929688 10.070312 C 106.597656 6.730469 103.246094 4.683594 99.308594 3.148438 C 95.488281 1.667969 91.125 0.648438 84.742188 0.363281 C 78.347656 0.0742188 76.300781 0 60.007812 0 C 43.714844 0 41.667969 0.0664062 35.265625 0.363281 "/>
<path style=" stroke:none;fill-rule:nonzero;fill:url(#radial1);" d="M 40.003906 60 C 40.003906 48.953125 48.957031 40 60.003906 40 C 71.046875 40 80.003906 48.953125 80.003906 60 C 80.003906 71.046875 71.046875 80 60.003906 80 C 48.957031 80 40.003906 71.046875 40.003906 60 M 29.191406 60 C 29.191406 77.015625 42.988281 90.808594 60.003906 90.808594 C 77.019531 90.808594 90.8125 77.015625 90.8125 60 C 90.8125 42.984375 77.019531 29.191406 60.003906 29.191406 C 42.988281 29.191406 29.191406 42.984375 29.191406 60 M 84.832031 27.96875 C 84.828125 31.945312 88.050781 35.171875 92.027344 35.171875 C 96.003906 35.171875 99.230469 31.953125 99.230469 27.976562 C 99.234375 24 96.011719 20.773438 92.035156 20.773438 L 92.03125 20.773438 C 88.058594 20.773438 84.835938 23.996094 84.832031 27.96875 M 35.761719 108.839844 C 29.914062 108.570312 26.734375 107.597656 24.621094 106.773438 C 21.820312 105.683594 19.820312 104.386719 17.71875 102.285156 C 15.617188 100.1875 14.316406 98.191406 13.230469 95.390625 C 12.40625 93.277344 11.433594 90.097656 11.167969 84.246094 C 10.875 77.921875 10.816406 76.023438 10.816406 60 C 10.816406 43.976562 10.878906 42.082031 11.167969 35.753906 C 11.433594 29.902344 12.414062 26.730469 13.230469 24.609375 C 14.320312 21.808594 15.621094 19.8125 17.71875 17.710938 C 19.816406 15.609375 21.8125 14.308594 24.621094 13.222656 C 26.730469 12.398438 29.914062 11.421875 35.761719 11.15625 C 42.085938 10.867188 43.988281 10.808594 60.003906 10.808594 C 76.019531 10.808594 77.917969 10.871094 84.25 11.15625 C 90.097656 11.425781 93.273438 12.40625 95.390625 13.222656 C 98.191406 14.308594 100.191406 15.609375 102.292969 17.710938 C 104.394531 19.808594 105.691406 21.808594 106.78125 24.609375 C 107.605469 26.722656 108.578125 29.902344 108.84375 35.753906 C 109.136719 42.082031 109.195312 43.976562 109.195312 60 C 109.195312 76.023438 109.136719 77.917969 108.84375 84.246094 C 108.578125 90.097656 107.601562 93.277344 106.78125 95.390625 C 105.691406 98.191406 104.390625 100.191406 102.292969 102.285156 C 100.195312 104.382812 98.191406 105.683594 95.390625 106.773438 C 93.28125 107.597656 90.097656 108.574219 84.25 108.839844 C 77.925781 109.128906 76.023438 109.1875 60.003906 109.1875 C 43.980469 109.1875 42.085938 109.128906 35.761719 108.839844 M 35.265625 0.363281 C 28.878906 0.652344 24.511719 1.667969 20.703125 3.148438 C 16.753906 4.683594 13.414062 6.738281 10.074219 10.070312 C 6.734375 13.40625 4.683594 16.753906 3.152344 20.699219 C 1.667969 24.511719 0.65625 28.875 0.367188 35.261719 C 0.0703125 41.660156 0.00390625 43.707031 0.00390625 60 C 0.00390625 76.292969 0.0703125 78.339844 0.367188 84.738281 C 0.65625 91.125 1.667969 95.488281 3.152344 99.300781 C 4.683594 103.246094 6.734375 106.597656 10.074219 109.929688 C 13.414062 113.261719 16.753906 115.3125 20.703125 116.851562 C 24.519531 118.332031 28.878906 119.347656 35.265625 119.636719 C 41.667969 119.925781 43.707031 120 60.003906 120 C 76.296875 120 78.339844 119.933594 84.738281 119.636719 C 91.128906 119.347656 95.488281 118.332031 99.304688 116.851562 C 103.246094 115.3125 106.59375 113.261719 109.929688 109.929688 C 113.269531 106.59375 115.316406 103.246094 116.851562 99.300781 C 118.335938 95.488281 119.351562 91.125 119.640625 84.738281 C 119.929688 78.335938 119.996094 76.292969 119.996094 60 C 119.996094 43.707031 119.929688 41.660156 119.640625 35.261719 C 119.347656 28.875 118.335938 24.511719 116.851562 20.699219 C 115.316406 16.753906 113.265625 13.410156 109.929688 10.070312 C 106.597656 6.730469 103.246094 4.683594 99.308594 3.148438 C 95.488281 1.667969 91.125 0.648438 84.742188 0.363281 C 78.347656 0.0742188 76.300781 0 60.007812 0 C 43.714844 0 41.667969 0.0664062 35.265625 0.363281 "/>
</g>
</svg>
